<svg width="262" height="326" viewBox="0 0 262 326" fill="none" xmlns="http://www.w3.org/2000/svg">
<g id="ai-hungry-source-v2" clip-path="url(#clip0_6_47)">
<g id="torso">
<path id="Vector" d="M72 177C105 185 146 189 181 177C178 205 190 220 200 245C175 260 166 280 170 300C145 305 115 301 90 300C99 282 85 260 66 246C76 221 80 201 72 177Z" fill="#EEC04F"/>
</g>
<g id="leg.L">
<path id="Vector_2" d="M64 246C61.89 245.68 59.71 245.54 57.75 246C55.79 246.46 52.07 248.07 50.25 249.25C48.43 250.43 46.32 252.71 45 254.25C43.68 255.79 43.18 259.32 41 260C38.82 260.68 32.29 258.82 29.75 259C27.21 259.18 24.89 260.36 23.25 261.25C21.61 262.14 19.71 263.18 18.25 265.25C16.79 267.32 13.75 273.07 13 275.75C12.25 278.43 12.71 281.96 13 284C13.29 286.04 13.86 287.79 15 290C16.14 292.21 18.82 296.82 21 299.5C23.18 302.18 27.93 306.75 30.25 308.75C32.57 310.75 35.32 312.36 37.25 313.5C39.18 314.64 41.82 316 43.75 316.75C45.68 317.5 48.71 318.46 50.75 318.75C52.79 319.04 55.61 319.21 58 318.75C60.39 318.29 65.39 316.68 67.5 315.5C69.61 314.32 71.5 312 72.75 310.5C74 309 73.79 306.39 76.25 305C78.71 303.61 87.5 302.32 90 300.75C92.5 299.18 93.07 295.54 93.75 294C94.43 292.46 94.61 292.18 94.75 290C94.89 287.82 94.89 280.93 94.75 278.75C94.61 276.57 94.93 277.39 93.75 274.75C92.57 272.11 88.54 263.36 86.5 260.25C84.46 257.14 81.5 254.71 79.5 253C77.5 251.29 74.71 249.25 72.5 248.25C70.29 247.25 66.11 246.32 64 246Z" fill="#FDCBA7"/>
</g>
<g id="leg.R">
<path id="Vector_3" d="M198.75 247C195.21 248.18 185.04 252.5 181.25 255.25C177.46 258 174 263.75 172.25 266.25C170.5 268.75 169.75 270.82 169 272.75C168.25 274.68 167.29 276.57 167 279.75C166.71 282.93 166.39 291.75 167 295C167.61 298.25 169 300.82 171.25 302.5C173.5 304.18 180.21 306 182.75 306.75C185.29 307.5 187.5 306.89 189 307.75C190.5 308.61 191.71 311.46 193.25 312.75C194.79 314.04 198.25 316.04 199.75 316.75C201.25 317.46 201.71 317.61 203.75 317.75C205.79 317.89 210.75 318.5 214 317.75C217.25 317 222.54 315.25 226.5 312.5C230.46 309.75 238.89 301.5 241.75 298.5C244.61 295.5 245.21 294.14 246.5 291.5C247.79 288.86 250.29 282.96 250.75 280C251.21 277.04 250.61 273.29 249.75 270.75C248.89 268.21 246.43 264.07 244.75 262.25C243.07 260.43 239.39 258.75 238 258C236.61 257.25 236.32 257.14 235 257C233.68 256.86 230.64 256.71 228.75 257C226.86 257.29 223.64 259.86 221.75 259C219.86 258.14 217.29 252.61 215.5 251C213.71 249.39 210.36 248.5 209.25 247.75C208.14 247 208.21 245.86 207.75 245.75C207.29 245.64 207.29 246.82 206 247C204.71 247.18 202.29 245.82 198.75 247Z" fill="#FDCBA7"/>
<path id="Vector_4" d="M159 254C159.11 255.57 157.89 254.64 159.75 254.75C161.61 254.86 168.96 255.04 172 254.75C175.04 254.46 177.64 253.93 181 252.75C184.36 251.57 193.04 247.86 195.5 246.5C197.96 245.14 203.36 243.75 198.25 243.25C193.14 242.75 165.36 242.93 159.75 243C154.14 243.07 159.11 242.18 159 243.75C158.89 245.32 158.89 252.43 159 254Z" fill="#FDCBA7"/>
</g>
<g id="upper-arm.L">
<path id="Vector_5" d="M66 181C51 185 44 197 41 209C37 222 44 230 58 230C72 229 83 219 85 205C87 194 82 184 76 181H66Z" fill="#FDCBA7"/>
</g>
<g id="upper-arm.R">
<path id="Vector_6" d="M178 181C193 187 204 205 207 221C210 236 201 246 187 247C174 246 167 237 170 227C177 219 181 218 174 211C162 211 160 198 178 181Z" fill="#FDCBA7"/>
</g>
<g id="head">
<path id="Vector_7" d="M152 6.00001C149.75 5.43001 145.89 5.46001 143.75 6.00001C141.61 6.54001 137.86 9.07 137 9.75C136.14 10.43 136.61 10.61 137.75 10.75C138.89 10.89 143.57 10.54 145 10.75C146.43 10.96 147.18 11.68 147.75 12.25C148.32 12.82 148.82 13.93 149 14.75C149.18 15.57 149.18 17.18 149 18C148.82 18.82 148.39 19.82 147.75 20.5C147.11 21.18 146.5 22.11 144.5 22.75C142.5 23.39 135.68 24.46 133.75 25C131.82 25.54 132.43 26.36 131 26.5C129.57 26.64 125.04 25.93 123.75 26C122.46 26.07 124.29 26.57 122 27C119.71 27.43 111.07 28.29 107.75 29C104.43 29.71 102.11 30.54 98.75 32C95.39 33.46 87.32 37.54 84.25 39.25C81.18 40.96 80 41.71 77.25 44C74.5 46.29 67.86 52.21 65 55.25C62.14 58.29 59.54 61.61 57.25 65.25C54.96 68.89 50.64 76.86 49 80.75C47.36 84.64 47.21 90.75 45.75 92.5C44.29 94.25 40.39 92.61 38.75 93C37.11 93.39 35.64 94 34.25 95.25C32.86 96.5 30.04 99.96 29 101.75C27.96 103.54 27.29 105.86 27 107.75C26.71 109.64 26.54 112.89 27 115C27.46 117.11 29.18 120.79 30.25 122.5C31.32 124.21 33 125.89 34.5 127C36 128.11 39.54 128.11 40.75 130.25C41.96 132.39 41.93 138.82 43 142C44.07 145.18 46.96 150.29 48.25 152.5C49.54 154.71 50.75 156.18 52 157.5C64 174 98 189 134 189C154 190 174 185 189.5 174.5C192.57 172.25 198.43 166.04 200.5 164.5C202.57 162.96 203.25 163.71 204 163.75C204.75 163.79 204.32 164.61 205.75 164.75C207.18 164.89 211.61 165.32 214 164.75C216.39 164.18 220.57 162.07 222.5 160.75C224.43 159.43 226.32 157.32 227.5 155.5C228.68 153.68 230.29 150.39 230.75 148C231.21 145.61 231.18 140.86 230.75 138.75C230.32 136.64 229.32 134.93 227.75 133.25C226.18 131.57 220.46 129.46 219.75 127C219.04 124.54 222.32 121.04 222.75 116C223.18 110.96 223.18 97.07 222.75 91.75C222.32 86.43 221.21 82.82 219.75 78.75C218.29 74.68 214.79 67.18 212.5 63.25C210.21 59.32 206.61 54.39 203.75 51.25C200.89 48.11 196.18 43.86 192.5 41.25C188.82 38.64 181.21 34.61 178 33C174.79 31.39 172.11 30.61 170 30C167.89 29.39 164.14 30.5 163.25 28.75C162.36 27 163.82 19.75 163.75 17.75C163.68 15.75 163.36 15.86 162.75 14.75C162.14 13.64 161.04 11.25 159.5 10C157.96 8.75001 154.25 6.57001 152 6.00001Z" fill="#FDCBA7"/>
</g>
<g id="forearm.L">
<path id="Vector_8" d="M56 179C45 186 42 200 42 212C42 221 50 227 60 224C74 222 84 209 85 196C84 184 73 177 56 179Z" fill="#FDCBA7"/>
</g>
<g id="forearm.R">
<path id="Vector_9" d="M184 216C196 210 206 218 207 229C209 242 195 251 177 255C165 258 148 260 143 251C138 240 152 225 164 225L184 216Z" fill="#FDCBA7"/>
</g>
<g id="hand.R">
<path id="Vector_10" d="M152 227C145 225 137 215 130 220C126 223 129 227 133 230C126 230 119 231 120 237C120 241 124 241 127 241C120 241 118 247 123 250C120 255 125 261 135 260C150 258 161 251 163 241C164 234 158 230 152 227Z" fill="#FDCBA7"/>
</g>
<g id="curl">
<path id="Vector_11" d="M151 6.00001C148.75 5.39001 145.39 5.75001 143.75 6.00001C142.11 6.25001 140.36 7.07001 139.5 7.75001C138.64 8.43001 136.96 10.32 137.75 10.75C138.54 11.18 143.43 10.39 145 10.75C146.57 11.11 148.18 12.21 148.75 13.25C149.32 14.29 149.14 16.96 149 18C148.86 19.04 148.46 19.79 147.75 20.5C147.04 21.21 146.64 22.04 144 23C141.36 23.96 131.93 26.21 129.25 27.25C126.57 28.29 126.29 29.04 125.25 30.25C124.21 31.46 122.46 33.93 122 35.75C121.54 37.57 121.57 41.18 122 43C122.43 44.82 123.96 47.29 125 48.5C126.04 49.71 127.82 50.82 129.25 51.5C130.68 52.18 134.18 53.25 135 53.25C135.82 53.25 135.32 52.11 135 51.5C134.68 50.89 133.07 49.82 132.75 49C132.43 48.18 132.54 46.61 132.75 45.75C132.96 44.89 133.11 43.86 134.25 43C135.39 42.14 138.64 40.36 140.75 39.75C142.86 39.14 147.04 39.21 149 38.75C150.96 38.29 153.14 37.21 154.5 36.5C155.86 35.79 157.36 34.89 158.5 33.75C159.64 32.61 161.75 29.75 162.5 28.5C163.25 27.25 163.57 26.54 163.75 25C163.93 23.46 163.89 19.21 163.75 17.75C163.61 16.29 163.36 15.82 162.75 14.75C162.14 13.68 161.18 11.5 159.5 10.25C157.82 9.00001 153.25 6.61001 151 6.00001Z" fill="#192947"/>
</g>
<g id="eye.L">
<path id="Vector_12" d="M77 101C76 100.68 73.86 100.71 72.75 101C71.64 101.29 70.04 102.39 69.25 103C68.46 103.61 67.86 104.14 67.25 105.25C66.64 106.36 65.32 109.07 65 110.75C64.68 112.43 64.68 115.46 65 117C65.32 118.54 66.43 120.54 67.25 121.5C68.07 122.46 69.93 123.43 70.75 123.75C71.57 124.07 72.04 124.07 73 123.75C73.96 123.43 76.25 122.89 77.5 121.5C78.75 120.11 81.14 116.11 81.75 114C82.36 111.89 82.04 108.29 81.75 106.75C81.46 105.21 80.43 104.07 79.75 103.25C79.07 102.43 78 101.32 77 101Z" fill="#192947"/>
</g>
<g id="eye.R">
<path id="Vector_13" d="M142 116C140.75 115.39 139.71 115.68 138.75 116C137.79 116.32 136.36 116.86 135.25 118.25C134.14 119.64 131.61 123.64 131 125.75C130.39 127.86 130.71 131.46 131 133C131.29 134.54 132.18 135.68 133 136.5C133.82 137.32 135.75 138.43 136.75 138.75C137.75 139.07 139.04 139.04 140 138.75C140.96 138.46 142.57 137.5 143.5 136.75C144.43 136 145.75 134.89 146.5 133.5C147.25 132.11 148.61 128.89 148.75 127C148.89 125.11 148.46 121.82 147.5 120.25C146.54 118.68 143.25 116.61 142 116Z" fill="#192947"/>
</g>
<g id="brow.L">
<path id="Vector_14" d="M91.25 78C91.39 77.18 90.82 76.43 89.5 77C88.18 77.57 83.5 81.14 82 82C80.5 82.86 80.32 82.86 79 83C77.68 83.14 73.75 82.86 72.75 83C71.75 83.14 71.93 83.64 72 84C72.07 84.36 72.57 85.11 73.25 85.5C73.93 85.89 75.96 86.71 76.75 86.75C77.54 86.79 77.86 85.89 78.75 85.75C79.64 85.61 81.61 86.18 83 85.75C84.39 85.32 87.32 83.86 88.5 82.75C89.68 81.64 91.11 78.82 91.25 78Z" fill="#192947"/>
</g>
<g id="brow.R">
<path id="Vector_15" d="M142.25 90.25C141.89 90.93 141.29 93.36 142 95C142.71 96.64 145.43 100.36 147.25 101.75C149.07 103.14 153.25 104.54 154.75 104.75C156.25 104.96 157.5 103.75 157.75 103.25C158 102.75 157.07 101.57 156.5 101.25C155.93 100.93 154.64 101.32 153.75 101C152.86 100.68 151.36 99.93 150.25 99C149.14 98.07 146.82 95.75 146 94.5C145.18 93.25 145.04 90.86 144.5 90.25C143.96 89.64 142.61 89.57 142.25 90.25Z" fill="#192947"/>
</g>
<g id="mouth">
<path id="Vector_16" d="M95 142C104 139 109 145 108 152C107 160 98 163 92 159C87 155 89 147 95 142Z" fill="#D94E33"/>
</g>
<g id="mouth.lower">
<path id="Vector_17" d="M92 153.75C91.79 154.82 92.57 158.36 93.25 159.5C93.93 160.64 95.5 161.43 96.75 161.75C98 162.07 100.71 162.14 102 161.75C103.29 161.36 105.46 159.89 105.75 159C106.04 158.11 104.96 156.5 104 155.5C103.04 154.5 100.32 152.5 99 152C97.68 151.5 95.75 151.75 94.75 152C93.75 152.25 92.21 152.68 92 153.75Z" fill="#EE7951"/>
</g>
<g id="nose">
<path id="Vector_18" d="M95 124.75C94.68 125.71 95.5 127.46 96.5 127.75C97.5 128.04 100.5 126.39 102 126.75C103.5 127.11 105.89 130.07 107 130.25C108.11 130.43 109.64 129 109.75 128C109.86 127 108.57 124.25 107.75 123.25C106.93 122.25 105.29 121.32 104 121C102.71 120.68 100.04 120.46 98.75 121C97.46 121.54 95.32 123.79 95 124.75Z" fill="#EF8961"/>
</g>
<g id="hand.L">
<path id="Vector_19" d="M57 179C51 173 54 162 59 157C63 153 68 153 72 152C75 150 82 150 88 151C94 152 98 157 95 161C94 163 91 164 87 164C97 164 97 171 92 175C95 180 91 186 85 190C78 195 65 191 57 185V179Z" fill="#FDCBA7"/>
</g>
<g id="ear.L.detail">
<path id="Vector_20" d="M38.75 103C38.07 103.32 36.93 104.29 36.25 105.25C35.57 106.21 34.32 108.79 34 109.75C33.68 110.71 33.57 110.75 34 112C34.43 113.25 36.14 117.39 37 118.5C37.86 119.61 39.18 121.75 40 119.75C40.82 117.75 42.61 106.89 42.75 104.5C42.89 102.11 41.57 103.21 41 103C40.43 102.79 39.43 102.68 38.75 103Z" fill="#F3A375"/>
</g>
<g id="ear.R.detail">
<path id="Vector_21" d="M219.5 140.25C218.5 139.71 215.64 139.86 214.75 140C213.86 140.14 214.43 139.29 213.25 141.25C212.07 143.21 207.43 151.75 206.5 153.75C205.57 155.75 205.68 154.96 206.75 155.25C207.82 155.54 212.29 156.14 214 155.75C215.71 155.36 217.64 153.75 218.75 152.5C219.86 151.25 221.32 148.25 221.75 147C222.18 145.75 222.07 144.71 221.75 143.75C221.43 142.79 220.5 140.79 219.5 140.25Z" fill="#F3A375"/>
</g>
<g id="hand.L.crease">
<path id="Vector_22" d="M87.75 187.75C87.29 187.71 81.32 190.57 80.25 191.25C79.18 191.93 79.79 192.46 80.25 192.5C80.71 192.54 82.43 192.18 83.5 191.5C84.57 190.82 88.21 187.79 87.75 187.75Z" fill="#F3A375"/>
<path id="Vector_23" d="M98.5 143.25C97.36 140.54 92.46 142.07 90.75 143C89.04 143.93 87.96 148.75 86.5 149.75C85.04 150.75 82 149.68 80.5 150C79 150.32 77.11 151.71 76 152C74.89 152.29 74.71 151.25 72.75 152C70.79 152.75 64.32 155.93 62.25 157.25C60.18 158.57 59.43 159.36 58.25 161.25C57.07 163.14 54.57 167.61 54 170.5C53.43 173.39 54 179.75 54.25 181.5C54.5 183.25 55.39 182.68 55.75 182.75C56.11 182.82 56.75 182.68 56.75 182C56.75 181.32 55.89 179.75 55.75 178C55.61 176.25 55.29 171.86 55.75 169.75C56.21 167.64 57.75 165 59 163.25C60.25 161.5 62.96 158.71 64.5 157.5C66.04 156.29 68.11 155.29 69.75 154.75C71.39 154.21 74.57 154.18 76 153.75C77.43 153.32 77.89 152.04 79.75 151.75C81.61 151.46 87.29 151.39 89 151.75C90.71 152.11 91.18 153.21 91.75 154.25C92.32 155.29 93.32 157.93 93 159C92.68 160.07 90.54 161.32 89.5 161.75C88.46 162.18 86.39 161.82 85.75 162C85.11 162.18 84.32 162.71 85 163C85.68 163.29 89.36 163.32 90.5 164C91.64 164.68 92.79 166.5 93 167.75C93.21 169 92 171 92 172.75C92 174.5 93 178.57 93 180C93 181.43 91.79 182.39 92 182.75C92.21 183.11 93.96 183.21 94.5 182.5C95.04 181.79 95.79 178.96 95.75 177.75C95.71 176.54 94.39 175.43 94.25 174C94.11 172.57 94.96 169.18 94.75 167.75C94.54 166.32 93.04 164.86 92.75 164C92.46 163.14 92.57 162.21 92.75 161.75C92.93 161.29 93.14 160.71 94 160.75C94.86 160.79 98.11 164.5 98.75 162C99.39 159.5 99.64 145.96 98.5 143.25Z" fill="#F3A375"/>
</g>
<g id="arm.R.crease">
<path id="Vector_24" d="M175.75 215.75C175.29 215.5 173.14 214.68 171.75 215C170.36 215.32 166.54 217.46 166 218C165.46 218.54 166.71 218.93 168 218.75C169.29 218.57 173.89 217.18 175 216.75C176.11 216.32 176.21 216 175.75 215.75Z" fill="#F3A375"/>
</g>
<g id="leg.L.crease">
<path id="Vector_25" d="M42 260.75C42.61 261.39 47.64 264.25 49.25 265.5C50.86 266.75 52.14 268.07 53.25 269.5C54.36 270.93 56.11 274.5 57 275.5C57.89 276.5 59.39 276.96 59.5 276.5C59.61 276.04 59.32 274.14 57.75 272.25C56.18 270.36 50.32 264.86 48.5 263.25C46.68 261.64 45.93 261.36 45 261C44.07 260.64 41.39 260.11 42 260.75Z" fill="#F3A375"/>
</g>
<g id="leg.R.crease">
<path id="Vector_26" d="M220 260C220.32 259.43 217.93 259.93 216.25 261.25C214.57 262.57 209.79 267.29 208.25 269.25C206.71 271.21 205.71 274.18 205.5 275C205.29 275.82 205.54 276.39 206.75 275C207.96 273.61 212.11 267.39 214 265.25C215.89 263.11 219.68 260.57 220 260Z" fill="#F3A375"/>
</g>
</g>
<defs>
<clipPath id="clip0_6_47">
<rect width="262" height="326" fill="white"/>
</clipPath>
</defs>
</svg>
