<svg xmlns="http://www.w3.org/2000/svg" viewBox="0 0 300 300" fill="none" role="img" aria-label="졸려 보임" focusable="false" class="character-art" data-pose="observation-SLEEPY_APPEARING" data-idle="false" style="display:block;width:100%;height:auto;background:#FFF6E7"><g data-part="baby"><g><g class="character-body" data-part="body"><path d="M111 157 Q149 173 190 157 C202 181 212 225 201 245 Q176 272 111 254 C86 244 96 187 111 157" fill="#E8BA63"></path><g data-part="left-leg" class="character-leg-left" fill="#F1BE96"><path d="M116 231 C98 214 77 227 86 247 C61 230 57 251 79 263 Q117 282 131 255Z"></path></g><g data-part="right-leg" class="character-leg-right" fill="#F1BE96"><path d="M184 232 C201 214 224 227 215 247 C240 230 244 251 222 263 Q184 282 169 255Z"></path></g><g transform="rotate(-6 150 155)"><g data-part="head" class="character-head"><g fill="#F1BE96"><ellipse cx="87" cy="127" rx="13" ry="16"></ellipse><ellipse cx="213" cy="127" rx="13" ry="16"></ellipse><path d="M91 121 C86 78 108 49 146 48 C190 44 214 74 211 122 C213 153 187 173 150 173 C117 173 92 155 91 121Z"></path></g><path data-part="curl" d="M148 52 C164 49 168 37 157 32 C179 27 185 49 170 59 C154 69 139 65 148 52Z" fill="#232B43"></path><g data-part="brows" fill="none" stroke="#232B43" stroke-width="3.5" stroke-linecap="round"><path d="M113 101 Q121 96 129 100 M172 100 Q180 96 188 101"></path></g><g data-part="eyes" fill="#232B43"><g><ellipse cx="121" cy="127" rx="6" ry="4"></ellipse><ellipse cx="180" cy="127" rx="6" ry="4"></ellipse><path d="M111 122 L130 123 M171 123 L190 121" stroke="#232B43" stroke-width="3"></path></g></g><ellipse cx="150" cy="134" rx="4" ry="2.8" fill="#E9786B"></ellipse><g data-part="mouth"><ellipse cx="151" cy="151" rx="9" ry="13" fill="#E9786B"></ellipse></g></g></g><g fill="none" stroke="#F1BE96" stroke-width="23" stroke-linecap="round" stroke-linejoin="round"><g data-part="left-arm" class="character-arm-left"><path d="M105 175 Q93 211 111 237"></path></g><g data-part="right-arm" class="character-arm-right"><path d="M195 175 Q216 193 191 153"></path></g></g></g></g></g></svg>
